<?xml version="1.0" encoding="UTF-8"?>
<svg xmlns="http://www.w3.org/2000/svg" viewBox="0 0 796.3 797.5">
  <g>
    <path class="st0" d="M559.8,713.8c-50.1,25.7-104.3,38.7-161,38.7-94.5,0-183.3-36.8-250.1-103.6s-103.6-155.6-103.6-250.1,36.8-183.3,103.6-250.1,155.6-103.6,250.1-103.6V0c-53.8,0-106,10.6-155.2,31.3-47.5,20.1-90.1,48.8-126.7,85.4-36.6,36.6-65.5,79.3-85.6,126.8C10.6,292.7,0,344.9,0,398.7s10.6,106,31.3,155.2c20.1,47.5,48.8,90.1,85.4,126.7,36.6,36.6,79.2,65.4,126.7,85.4,49.2,20.8,101.4,31.3,155.2,31.3s125-14.7,181.5-43.6c53.9-27.6,101.6-67.9,138-116.5l-36-27c-32.3,43.2-74.6,78.9-122.5,103.4h0l.2.2Z"/>
    <polygon class="st0" points="428.4 46.3 434.1 46.8 437.6 8.4 451.6 9.7 452.1 4.6 418.3 1.5 417.9 6.7 431.9 7.9 428.4 46.3"/>
    <path class="st0" d="M473.3,53.5c5.7,1.2,10.4.6,14.2-1.9s6.4-6.8,7.7-13.1l1.3-6.2c1.3-6.2.8-11.2-1.6-15.1-2.4-3.8-6.4-6.3-12.1-7.5s-10.4-.6-14.2,1.9-6.4,6.8-7.7,13.1l-1.3,6.2c-1.3,6.2-.8,11.2,1.6,15.1,2.4,3.8,6.4,6.3,12.1,7.5h0ZM465.2,32.2l1.3-6c1-4.8,2.8-8.1,5.3-10s5.8-2.3,9.9-1.4c4.1.9,6.9,2.7,8.4,5.4s1.8,6.5.8,11.3l-1.3,6c-1,4.7-2.8,7.9-5.2,9.7-2.5,1.8-5.8,2.2-9.9,1.4-4.1-.9-6.9-2.7-8.5-5.3-1.5-2.7-1.8-6.3-.8-11h0Z"/>
    <path class="st0" d="M515.7,45l11.9,4.3,3.2,21,6.2,2.2-3.6-21.7c3.2.4,5.9,0,8.1-1.5,2.2-1.4,3.9-3.5,5-6.5,1.4-3.8,1.2-7.2-.4-10s-4.8-5.1-9.3-6.8l-17.9-6.5-14.9,41,5.4,2,6.3-17.5h0ZM522.4,26.3l12.2,4.4c3,1.1,5,2.4,6,4.1s1.1,3.7.3,6c-.9,2.4-2.2,4-4,4.6-1.8.7-4.1.5-7-.6l-12.6-4.6,5.1-14h0Z"/>
    <rect class="st0" x="538.6" y="56.9" width="43.6" height="5.8" transform="translate(265.2 539.9) rotate(-64.5)"/>
    <path class="st0" d="M580.5,95.2c5,3,9.7,4,14.1,2.9,4.4-1.1,8.2-4.3,11.4-9.7l3-4.9c3.2-5.4,4.3-10.2,3.2-14.6-1.1-4.3-4.1-8-9.1-11l-13.8-8.3-22.5,37.4,13.7,8.3h0ZM591.6,56.9l8.9,5.3c3.6,2.2,5.7,4.8,6.3,7.8s-.4,6.6-2.9,10.7l-2.9,4.8c-2.4,4-5.1,6.4-8,7.3s-6.2.2-9.8-2l-8.9-5.3,17.2-28.6h.1Z"/>
    <polygon class="st0" points="630.9 131.3 634.1 127.3 614.7 112 623.7 100.6 640.3 113.8 643.5 109.8 626.9 96.6 635.4 85.8 654.8 101.2 658 97.1 634.1 78.2 607 112.4 630.9 131.3"/>
    <polygon class="st0" points="657.8 157.3 682.9 135.9 673.4 162.2 676 165.3 703.5 160.1 678.4 181.5 682.1 185.8 715.3 157.5 711.6 153.2 679.8 159.5 691 129 687.3 124.6 654.1 152.9 657.8 157.3"/>
    <path class="st0" d="M691,198.8l10.4-1.9,11.3,18.1-6.2,8.6,3.2,5.1,27.3-38.7-2.6-4.1-46.7,7.7,3.2,5.1h0ZM729.7,191.8l-13.9,19-9.3-14.8,23.1-4.2h.1Z"/>
    <path class="st0" d="M716.6,242.8l16.9-7.7,5.2,11.5-12.7,17,2.7,6,13-17.8c1.9,2.5,4.2,4.1,6.7,4.8,2.5.6,5.2.3,8.1-1,3.7-1.7,6-4.1,6.9-7.3s.4-7-1.6-11.4l-7.9-17.3-39.7,18.1,2.4,5.2h0ZM751.7,226.9l5.4,11.9c1.3,2.9,1.7,5.3,1.3,7.2-.5,1.9-1.8,3.4-4.1,4.4-2.3,1.1-4.4,1.2-6.1.4-1.7-.8-3.2-2.6-4.5-5.4l-5.5-12.2,13.6-6.2h-.1Z"/>
    <polygon class="st0" points="735.7 290.5 737.4 295.9 774.1 284.4 778.3 297.9 783.2 296.3 773.1 264 768.2 265.5 772.4 279 735.7 290.5"/>
    <rect class="st0" x="744" y="314.7" width="43.6" height="5.8" transform="translate(-50.3 171.9) rotate(-12.4)"/>
    <path class="st0" d="M748.3,342l10.3,2.7,2.5,21.2-9.3,5.1.7,6,41.2-23.3-.6-4.8-45.5-12.9.7,6h0ZM786.3,352.1l-20.6,11.2-2.1-17.3,22.7,6.1h0Z"/>
    <polygon class="st0" points="752.6 387.1 752.4 417.3 757.6 417.3 757.7 392.9 796.2 393.1 796.3 387.3 752.6 387.1"/>
    <path class="st0" d="M749.2,449.9l9,5.7-3.9,21-10.4,2.1-1.1,6,46.3-9.9.9-4.8-39.5-25.9-1.1,5.9h-.2ZM762.6,458.3l19.8,12.6-23,4.6,3.2-17.2h0Z"/>
    <path class="st0" d="M738.1,499.6l17.7,5.8-4,12-20.8,3.8-2.1,6.2,21.6-4.3c-.3,3.2.3,5.9,1.7,8s3.7,3.8,6.7,4.8c3.8,1.3,7.2,1,10-.7s5-4.9,6.5-9.5l6-18.1-41.4-13.7-1.8,5.5h0v.2ZM760.5,507l14.2,4.7-4.1,12.4c-1,3-2.3,5-3.9,6.1s-3.6,1.2-6,.4-4-2.1-4.7-3.8c-.7-1.8-.6-4.1.4-7l4.2-12.7h-.1Z"/>
    <polygon class="st0" points="754.7 564 719.9 547.5 717.4 552.6 752.2 569.1 746.2 581.9 750.8 584 765.3 553.4 760.7 551.2 754.7 564"/>
    <path class="st0" d="M734.2,589.7c-5.7-3.6-11.3-2.1-16.7,4.5l-3.7,4.6c-1.9,2.3-3.7,3.8-5.5,4.4-1.8.6-3.6.3-5.4-.9-4.2-2.7-4.4-7.2-.4-13.5,1.9-3.1,3.9-5.1,6-6s4.4-.8,6.9.5l3-4.7c-3.8-2-7.3-2.4-10.7-1.1-3.4,1.3-6.5,4.1-9.2,8.5-2.9,4.6-4.2,8.7-3.9,12.5s2.2,6.7,5.6,8.9c5.8,3.7,11.5,2.1,17-4.5l3.8-4.8c1.9-2.3,3.7-3.7,5.3-4.2,1.7-.6,3.4-.3,5.1.8,2,1.2,3,2.9,3.1,5.1,0,2.2-.8,4.7-2.6,7.6-1.8,2.9-3.7,4.7-5.7,5.5s-4.1.6-6.3-.5l-3,4.7c3.7,1.8,7.2,2.1,10.4.9,3.2-1.2,6.1-3.9,8.7-8,2.7-4.2,3.8-8.1,3.5-11.7s-2.1-6.4-5.5-8.5h.2Z"/>
  </g>
  <g>
    <path class="st1" d="M519.2,425.3c16.7-.9,33.5,0,50.2-.2,11.4-.2,18.1-7.8,14.7-17.3-1.5-4.4-5.3-8.9-9.3-11.3-13.3-7.9-27.9-11.5-43.5-8.6-20.6,3.8-41,9.6-61.8,11.4-70.4,6.1-140.9,11-211.3,16-20.5,1.5-40.9,0-60.3-7.8-3.1-1.2-6.9-.5-10.4-.7.2,4-1,8.7.7,11.9,7,13.2,17.2,23.7,30.3,30.8,3.2,1.7,7.6,2,11.3,1.5,12.1-1.6,24.1-4,36.2-5.8,14.6-2.1,29.3-3.9,43.9-5.8.6.6,1.2,1.3,1.8,2-4,7-6.9,15-12.2,20.8-17.9,19.6-36.1,39-55.1,57.5-29,28.2-63.9,48.3-97.9,69.7-2.6,1.6-5,3.4-7.5,5,.2.8.4,1.7.6,2.5,3.9,0,7.9.8,11.6,0,40-10.1,75.9-28.3,108-54.2,8.8-7.1,18-13.8,28.3-21.6,2.7,6.4,5.7,11.5,6.9,17,2.6,11.6,4.4,23.5,6.3,35.2,2.7,16.8,4.8,33.7,8.1,50.3,3.1,15.6,14.1,19.8,27.8,12.1,5.1-2.9,11.3-5.3,17.1-5.5,52-2.1,104-3.9,156-5.3,14.4-.4,20.7-9.4,15.2-22.8-1.6-3.8-2.2-8.7-1.4-12.7,4.7-22.2,11.9-43.4,26.2-61.7,7-8.9,6.8-12.8-1.5-20.7-9.4-8.8-19.9-16.7-30.6-23.9-3.6-2.4-9.6-2.5-14.1-1.8-13.9,2.2-27.5,6.6-41.4,7.9-40.5,3.7-81,6.5-121.5,9.3-9.6.7-19.3.1-30,.1,2.3-2.7,4-4.7,5.7-6.5,9.9-10.8,19.6-21.7,29.7-32.2,5.4-5.7,7.3-11.5,3.2-18.6-.7-1.2-.9-2.7-1.6-4.8,8.4-.7,16.1-1.5,23.7-2,49.3-3,98.6-6.1,147.9-8.7h0v-.4ZM372.1,523c38.9-2.9,77.8-5.9,116.7-8.6,16.5-1.1,17.8.4,14.2,16.4-4.9,21.7-10.2,43.2-15.2,64.2-51.7,3.1-102.2,6.2-153.6,9.2-3.5-25.6-6.9-50.9-10.5-77.3,16.8-1.4,32.6-2.8,48.4-4h0Z"/>
    <path class="st1" d="M138.3,352.8c1.6,7,1.4,12.6,4,15.8,8.9,10.4,18.4,20.3,28.4,29.7,5.4,5.1,12.1,4.9,19.3,2.2,38-14.2,76.3-27.7,114.3-42,28.3-10.7,56.3-22,84.3-33.5,2.5-1,3.9-4.7,5.8-7.2-2.6-1.2-5.1-3-7.8-3.4-3.4-.4-6.9.1-10.3.8-10.4,2.2-20.7,4.7-31,7.1-14.6,3.4-29.1,6.8-43.4,10.2v-76.1c13.9-1.3,26.8-2.5,39.7-3.6,13-1.1,26-1.4,38.9-3.1,10.6-1.4,14.2-12,7.2-20.3-2.3-2.8-5.5-5.1-8.8-6.6-10.4-5-21.2-6.1-32.5-3-14.4,4.1-29,7.5-44.5,11.4-.2-4.5-.7-7.1-.5-9.6,1.4-17.2,3.2-34.4,4.1-51.6.2-4.4-.6-10.1-3.4-13.1-11.6-12.7-26.4-20.5-43.5-22.8-4-.5-8.4,1.9-12.7,2.9-.4.9-.8,1.7-1.2,2.5,23.1,18.5,22.4,44.5,23.5,69.7,1.1,25.5,1.3,51,1.7,76.5.2,18,0,36.1,0,54.6-11.2,3.1-22.4,6.2-34.3,9.6-.7-11.1-1.6-21.4-1.8-31.7-.6-19.6-.5-39.3-1.3-59-.2-3.9-1.9-8.9-4.8-11.2-12.2-10.3-26.8-16.1-42.3-19-2.7-.5-6,2.3-9,3.5,1.1,2.5,1.5,5.5,3.2,7.3,11.5,12.2,18.4,26.6,20.1,43.3,1.3,13.5,2.3,27,3.5,40.5,1,11.3,2,22.6,3,33.6-22.8,8-44.1,3.5-68-4.5h0Z"/>
    <path class="st1" d="M410.7,177.2c.4,8.2,1.1,16.4,1.4,24.7,1.5,39.8,2.5,79.7,4.4,119.4,1.4,28.5,13.8,42.5,41.7,48.1,29.7,6,59.8,5.3,89.7,2.9,23-1.9,45.8-5.8,68.5-9.9,11.8-2.1,13.7-7.9,9.7-19.4-4.7-13.8-9-27.7-13.1-41.6-2.8-9.4-4.7-19.1-7.6-28.4-.8-2.7-3.8-4.8-5.8-7.2-.7,2.6-1.7,5.1-2.2,7.7-2.2,12.8-4.3,25.6-6.3,38.4-2.3,15.2-12,23.4-26,26.6-32.8,7.7-65.9,7.4-98.9,1.9-13.2-2.2-18.4-8.5-19-21.8-.8-17.2-.2-34.5-.8-51.8-.2-6.1,2.1-8.7,7.5-11.1,45-20.4,89.7-41.2,134.6-61.7,5.8-2.6,8.5-6.6,6.7-12.6-5.9-19.3-18.5-32.6-37.4-39.5-5.1-1.9-10.6-1.6-12.5,1.7,1.8,7.8,3.8,13.3,4.3,19,.8,10.4-6,17.1-13.9,21.6-28,16.2-56.3,31.8-84.6,47.6-1.5.8-3.3,1-7.2,2.1,2.3-24.5,4.3-47.8,6.9-70.9.8-7.1-.9-12.8-7.1-15.3-12.9-5.2-26.2-9.8-39.6-13.6-3.3-.9-7.8,2.1-13.6,3.9,17.3,15,18.9,18.4,20,39h0l.2.2Z"/>
  </g>
</svg>