<svg width="20" height="24" viewBox="0 0 20 24" fill="none" xmlns="http://www.w3.org/2000/svg">
<path d="M7.92002 16.9152C6.84002 16.9152 5.96002 17.76 5.96002 18.7968C5.96002 19.8336 6.84002 20.6784 7.92002 20.6784C9.00002 20.6784 9.88002 19.8336 9.88002 18.7968C9.88002 17.76 9.00002 16.9152 7.92002 16.9152Z" fill="#1D1D1B"/>
<path d="M16.16 16.9152C15.08 16.9152 14.2 17.76 14.2 18.7968C14.2 19.8336 15.08 20.6784 16.16 20.6784C17.24 20.6784 18.12 19.8336 18.12 18.7968C18.12 17.76 17.24 16.9152 16.16 16.9152Z" fill="#1D1D1B"/>
<path d="M18.16 15.1104H6.47997L6.35997 14.0736L15.52 13.152C16.72 13.0368 17.66 12.1344 17.82 11.0016L18.42 6.7584C18.46 6.4512 18.24 6.144 17.9 6.1056C17.88 6.1056 17.84 6.1056 17.82 6.1056H5.39997L5.11997 3.8208C5.07997 3.5328 4.81997 3.3024 4.51997 3.3024H1.81997C1.47997 3.3024 1.21997 3.552 1.21997 3.8784C1.21997 4.2048 1.47997 4.4544 1.81997 4.4544H3.97997L5.33997 15.744C5.37997 16.032 5.63997 16.2624 5.93997 16.2624H18.16C18.5 16.2624 18.76 16.0128 18.76 15.6864C18.76 15.36 18.5 15.1104 18.16 15.1104Z" fill="#1D1D1B"/>
</svg>
