<svg width="20" height="24" viewBox="0 0 20 24" fill="none" xmlns="http://www.w3.org/2000/svg">
<path d="M13.92 11.616C13.8 11.5392 13.66 11.5584 13.56 11.616C12.56 12.3264 11.34 12.7296 9.99998 12.7296C8.65998 12.7296 7.43998 12.3072 6.43998 11.616C6.33998 11.5392 6.17998 11.5392 6.07998 11.616C3.71998 13.0752 2.53998 15.936 2.53998 19.2192C2.53998 22.5024 17.46 21.4848 17.46 19.2192C17.46 15.936 16.28 13.0752 13.92 11.616Z" fill="#1D1D1B"/>
<path d="M9.99998 11.2512C12.4632 11.2512 14.46 9.33425 14.46 6.96959C14.46 4.60493 12.4632 2.68799 9.99998 2.68799C7.53679 2.68799 5.53998 4.60493 5.53998 6.96959C5.53998 9.33425 7.53679 11.2512 9.99998 11.2512Z" fill="#1D1D1B"/>
</svg>
